<svg xmlns="http://www.w3.org/2000/svg" width="350" height="82" viewBox="0 0 350 82" fill="none"><g id="Logo - Master Saude"><path id="Vector" d="M26.5984 26.948C26.5945 19.6431 26.5925 12.297 26.5925 4.90959C26.5925 2.89486 27.8355 0.0494843 30.2332 0.0318112C36.4188 -0.00353509 42.6044 -0.00942541 48.79 0.0141387C50.4866 0.0200298 51.5882 1.53402 52.1714 2.93609C52.2539 3.13639 52.2028 3.29152 52.0183 3.40149C45.7109 7.15997 40.7978 12.2714 37.2789 18.7359C35.0285 22.8635 32.8822 27.0383 30.84 31.2602C29.6323 33.7639 27.8709 36.5209 26.08 38.7418C19.9023 46.4041 11.539 50.5573 0.990071 51.2014C0.870869 51.2078 0.751612 51.19 0.639593 51.149C0.527575 51.1081 0.42515 51.0449 0.338578 50.9633C0.252007 50.8817 0.183109 50.7834 0.136101 50.6744C0.0890921 50.5655 0.0649585 50.4481 0.0651774 50.3295C0.0691048 44.2657 0.047504 38.4944 0.000375631 33.0157C-0.0290796 29.5577 1.67343 27.272 5.22573 27.2838C12.4953 27.3034 19.4938 27.3171 26.2214 27.325C26.4727 27.325 26.5984 27.1993 26.5984 26.948Z" fill="#3F39CA"></path><path id="Vector_2" d="M111.73 31.0481C112.111 30.836 112.301 30.948 112.301 31.3839L112.278 35.8493C112.278 36.3324 112.058 36.674 111.618 36.8743C103.907 40.3913 94.475 39.7551 88.2836 33.5636C83.0641 28.348 81.1672 22.2921 82.5928 15.3956C83.5236 10.9106 85.9114 7.16191 89.7563 4.14962C93.8643 0.933112 98.6537 -0.37078 104.125 0.237961C106.548 0.508949 109.214 1.21785 112.125 2.36464C112.211 2.39605 112.254 2.45693 112.254 2.54726L112.284 7.95523C112.283 7.97389 112.278 7.99222 112.269 8.00851C112.26 8.02481 112.247 8.03857 112.232 8.04853C112.217 8.0585 112.2 8.06435 112.182 8.06554C112.164 8.06674 112.146 8.06324 112.13 8.05538C108.816 6.48837 106.033 5.60274 103.783 5.39852C96.7097 4.76229 91.6081 7.56445 88.478 13.805C87.8064 15.1443 87.3901 16.7447 87.2291 18.6062C87.0955 20.1654 87.284 21.7383 87.7946 23.325C89.3145 28.0456 92.3111 31.2072 96.7843 32.8095C101.556 34.5179 106.538 33.9308 111.73 31.0481Z" fill="#3F39CA"></path><path id="Vector_3" d="M118.416 0.514832H114.151C113.995 0.514832 113.868 0.641438 113.868 0.797608V37.5813C113.868 37.7374 113.995 37.864 114.151 37.864H118.416C118.572 37.864 118.699 37.7374 118.699 37.5813V0.797608C118.699 0.641438 118.572 0.514832 118.416 0.514832Z" fill="#3F39CA"></path><path id="Vector_4" d="M131.011 2.07604L125.108 9.73439C125.09 9.75768 125.067 9.77663 125.04 9.78987C125.014 9.80311 124.985 9.81031 124.955 9.81096L121.267 9.87577C121.233 9.87679 121.2 9.86915 121.169 9.85357C121.139 9.83798 121.114 9.81496 121.095 9.78667C121.076 9.75839 121.064 9.72575 121.062 9.69187C121.059 9.65799 121.065 9.62397 121.079 9.59299L124.572 1.91109C124.588 1.87596 124.614 1.84614 124.646 1.82524C124.679 1.80435 124.716 1.79324 124.755 1.79326L130.852 1.75202C130.89 1.75173 130.927 1.7621 130.959 1.78192C130.991 1.80174 131.017 1.83019 131.033 1.86404C131.05 1.89789 131.057 1.93574 131.053 1.97324C131.049 2.01074 131.034 2.04638 131.011 2.07604Z" fill="#3F39CA"></path><path id="Vector_5" d="M152.614 10.1939C154.696 10.1939 156.384 8.50584 156.384 6.42358C156.384 4.34132 154.696 2.65332 152.614 2.65332C150.531 2.65332 148.843 4.34132 148.843 6.42358C148.843 8.50584 150.531 10.1939 152.614 10.1939Z" fill="#3F39CA"></path><path id="Vector_6" d="M24.3599 41.652C25.8621 40.1321 27.329 38.3707 28.4718 36.5327C30.6476 33.0295 32.6152 29.3358 34.3747 25.4516C34.7242 24.6779 35.115 23.9317 35.547 23.213C36.1537 22.188 36.519 21.104 37.1199 20.079C39.115 16.6504 40.896 14.0112 42.463 12.1614C45.3791 8.72695 48.6958 6.41176 52.3777 3.84916C52.4186 3.8209 52.4665 3.80416 52.5162 3.8008C52.5658 3.79744 52.6153 3.80758 52.6591 3.83011C52.703 3.85263 52.7395 3.88668 52.7647 3.9285C52.7898 3.97031 52.8027 4.01828 52.8018 4.06713C52.8411 10.2959 52.849 16.5993 52.8254 22.9774C52.8254 23.3073 52.792 23.6274 52.7252 23.9376C52.7085 24.025 52.6737 24.1079 52.6229 24.1809C52.5722 24.254 52.5067 24.3156 52.4307 24.3618C48.9039 26.6082 46.3727 29.4418 44.8371 32.8625C43.7335 35.3171 42.7497 38.0133 41.8857 40.9509C40.0359 47.219 35.6236 52.2912 29.3025 53.9289C27.6058 54.3688 25.5813 54.573 23.2288 54.5416C17.4634 54.467 11.5469 54.4493 5.47911 54.4886C3.52328 54.5003 2.02303 53.7031 0.978348 52.0968C0.955076 52.0628 0.941387 52.0231 0.938716 51.982C0.936044 51.9408 0.94449 51.8997 0.963166 51.863C0.981841 51.8262 1.01006 51.7952 1.04486 51.7731C1.07967 51.751 1.11977 51.7387 1.16097 51.7374C10.4217 51.3133 18.1547 47.9515 24.3599 41.652Z" fill="#3F39CA"></path><path id="Vector_7" d="M133.756 17.593C134.587 16.674 135.459 15.649 136.478 14.9597C140.158 12.4698 143.535 12.9057 146.611 16.2675C147.73 17.487 148.384 19.7786 148.372 21.5341C148.345 27.0206 148.343 32.3618 148.366 37.5577C148.366 37.7659 148.262 37.87 148.054 37.87L143.53 37.8582C143.353 37.8582 143.265 37.7698 143.265 37.5931C143.327 31.918 143.325 26.7064 143.259 21.9583C143.194 17.0334 137.727 16.5739 135.052 19.7668C133.949 21.0785 133.389 22.677 133.373 24.5621C133.338 28.5955 133.33 32.9608 133.35 37.6579C133.35 37.7126 133.328 37.765 133.29 37.8037C133.251 37.8423 133.198 37.8641 133.144 37.8641L128.737 37.8582C128.659 37.8582 128.619 37.8189 128.619 37.7403V14.7712C128.619 14.2881 128.861 14.0701 129.344 14.1173C130.526 14.2351 131.636 14.2469 132.672 14.1526C133.128 14.1094 133.352 14.3156 133.344 14.7712L133.32 17.4281C133.316 17.8679 133.462 17.9229 133.756 17.593Z" fill="#3F39CA"></path><path id="Vector_8" d="M165.362 33.0334C168.602 34.3176 172.266 32.7742 174.894 30.5886C174.897 30.5848 174.901 30.5822 174.906 30.5811C174.911 30.58 174.916 30.5804 174.921 30.5824C174.925 30.5844 174.929 30.5877 174.932 30.592C174.934 30.5963 174.935 30.6013 174.935 30.6063C175.009 32.4286 175.033 34.2568 175.005 36.0908C175.005 36.2047 174.956 36.2931 174.858 36.3559C171.212 38.6593 166.811 39.4075 162.923 37.3397C158.693 35.0835 156.284 31.1247 155.918 26.4708C155.783 24.8154 156.407 23.4133 156.743 21.8227C156.869 21.2258 157.057 20.6838 157.309 20.1968C160.743 13.6106 168.419 11.59 174.929 15.213C174.98 15.2405 175.005 15.2837 175.005 15.3426L175 20.3617C174.999 20.3967 174.99 20.4309 174.972 20.461C174.954 20.4911 174.929 20.516 174.898 20.5333C174.868 20.5505 174.834 20.5595 174.799 20.5594C174.764 20.5593 174.729 20.5501 174.699 20.5326C168.91 17.1786 164.543 17.7501 161.597 22.2469C159.188 25.9288 161.368 31.4546 165.362 33.0334Z" fill="#3F39CA"></path><path id="Vector_9" d="M194.505 18.1173L194.31 14.5002C194.299 14.2999 194.391 14.1998 194.587 14.1998L199.041 14.1821C199.13 14.1821 199.215 14.2175 199.278 14.2804C199.341 14.3434 199.377 14.4288 199.377 14.5179L199.394 37.3339C199.394 37.6952 199.214 37.8759 198.852 37.8759L194.823 37.8641C194.47 37.8601 194.301 37.6815 194.316 37.328L194.458 34.082C194.481 33.5479 194.334 33.4968 194.016 33.9288C187.718 42.518 177.226 38.2234 175.188 28.945C174.249 24.6878 175.167 20.8115 177.939 17.3161C182.511 11.5547 190.128 12.5326 194.128 18.2469C194.403 18.6436 194.528 18.6004 194.505 18.1173ZM187.29 33.9489C189.317 34.0091 191.286 33.2355 192.763 31.7983C194.24 30.3611 195.105 28.378 195.167 26.2853C195.198 25.2491 195.031 24.2172 194.675 23.2484C194.319 22.2797 193.782 21.3931 193.094 20.6394C192.406 19.8856 191.581 19.2794 190.665 18.8553C189.75 18.4313 188.762 18.1977 187.758 18.1679C185.731 18.1077 183.762 18.8814 182.285 20.3186C180.808 21.7558 179.943 23.7389 179.881 25.8316C179.85 26.8678 180.017 27.8997 180.373 28.8684C180.729 29.8371 181.266 30.7237 181.954 31.4775C182.642 32.2312 183.467 32.8374 184.383 33.2615C185.298 33.6856 186.286 33.9192 187.29 33.9489Z" fill="#3F39CA"></path><path id="Vector_10" d="M126.387 14.188H122.039C121.919 14.188 121.821 14.2856 121.821 14.406V37.652C121.821 37.7724 121.919 37.87 122.039 37.87H126.387C126.507 37.87 126.605 37.7724 126.605 37.652V14.406C126.605 14.2856 126.507 14.188 126.387 14.188Z" fill="#3F39CA"></path><path id="Vector_11" d="M154.97 14.188H150.458C150.353 14.188 150.269 14.2724 150.269 14.3765V37.6814C150.269 37.7856 150.353 37.87 150.458 37.87H154.97C155.074 37.87 155.159 37.7856 155.159 37.6814V14.3765C155.159 14.2724 155.074 14.188 154.97 14.188Z" fill="#3F39CA"></path><path id="Vector_12" d="M52.8371 54.6595C52.8253 62.1568 52.8234 69.6325 52.8312 77.0867C52.8312 79.5255 51.3055 81.9173 48.7429 81.935C42.9264 81.986 37.2023 81.9959 31.5705 81.9644C28.4247 81.9468 27.1168 79.608 27.1286 76.7627C27.1483 70.7067 27.1483 64.4052 27.1286 57.8583C27.1286 57.6344 27.2386 57.5088 27.4585 57.4813C36.03 56.3443 42.1861 50.253 44.6898 42.088C45.2828 40.1636 45.9623 38.1783 46.7281 36.1321C47.5941 33.8229 50.7694 27.9024 53.4675 27.8965C60.8273 27.8729 68.0478 27.8788 75.1288 27.9141C78.0626 27.9318 79.2349 30.1881 79.2172 32.7625C79.174 37.8248 79.176 43.1032 79.2231 48.5976C79.2467 51.9967 78.3512 54.4415 74.4926 54.4592C67.5883 54.4906 60.4326 54.4965 53.0256 54.4768C52.9756 54.4768 52.9277 54.4961 52.8923 54.5303C52.857 54.5646 52.8371 54.611 52.8371 54.6595Z" fill="#3F39CA"></path><path id="Vector_13" d="M111.789 57.9348L102.216 81.6168C102.055 82.0095 101.896 82.0095 101.739 81.6168L92.2246 58.1469C92.0164 57.6285 91.8436 57.6402 91.7062 58.1822L86.1568 80.3266C86.0861 80.6173 85.9015 80.7606 85.6031 80.7567L81.7444 80.7449C81.4342 80.7449 81.3183 80.5957 81.3968 80.2972C83.0935 73.7424 84.7822 67.166 86.4631 60.5681C86.9933 58.5003 87.3409 56.5504 87.9418 54.4355C88.8844 51.0894 89.8073 47.3721 90.7106 43.2838C90.7224 43.2366 90.742 43.1934 90.7695 43.1542C90.8088 43.1031 90.852 43.056 90.8991 43.0128C90.9855 42.9264 91.0523 42.9401 91.0994 43.054L101.733 69.387C101.851 69.6737 101.978 69.6796 102.116 69.4046C102.97 67.7257 103.529 65.9878 104.225 64.25C106.938 57.4871 109.201 51.9082 111.011 47.5135C111.616 46.0447 112.123 44.6623 112.531 43.3662C112.727 42.7379 112.902 42.732 113.055 43.3486L122.487 80.5858C122.491 80.6046 122.491 80.6242 122.487 80.6431C122.483 80.6619 122.475 80.6796 122.463 80.6949C122.451 80.7101 122.436 80.7225 122.419 80.7312C122.401 80.7398 122.382 80.7445 122.363 80.7449L118.039 80.7567C117.998 80.7571 117.958 80.744 117.925 80.7196C117.892 80.6951 117.868 80.6606 117.856 80.6212L112.06 57.9524C111.985 57.6736 111.895 57.6677 111.789 57.9348Z" fill="#3F39CA"></path><path id="Vector_14" d="M228.084 72.0734C228.049 71.9752 228.08 71.9124 228.178 71.8849L232.573 70.5359C232.742 70.4848 232.863 70.5398 232.938 70.7008C234.289 73.7681 236.255 75.6748 238.835 76.421C242.187 77.3871 246.446 75.6905 246.823 71.7847C247.147 68.3797 244.926 65.8407 242.063 64.4916C237.191 62.2 232.261 60.5623 230.281 55.0306C228.343 49.6227 233.032 43.9378 238.305 43.2603C243.281 42.6162 247.41 44.0733 250.694 47.6315C251.039 48.0085 251.016 48.36 250.623 48.686L247.76 51.0718C247.316 51.441 246.925 51.3919 246.588 50.9246C244.496 48.0615 240.667 47.5549 237.48 48.8922C235.33 49.7994 234.205 52.4857 235.63 54.5594C236.188 55.3684 236.958 56.0419 237.94 56.58C241.892 58.7597 246.211 60.1323 249.162 63.4902C256.072 71.3488 249.704 83.1662 239.459 81.8879C234.11 81.2202 230.319 77.9487 228.084 72.0734Z" fill="#3F39CA"></path><path id="Vector_15" d="M319.619 61.1454L319.595 43.6608C319.595 43.547 319.654 43.49 319.772 43.49L324.096 43.4664C324.158 43.4664 324.218 43.4913 324.262 43.5354C324.307 43.5796 324.331 43.6396 324.331 43.7021L324.337 80.3267C324.337 80.6173 324.192 80.7626 323.901 80.7626L320.037 80.7391C319.738 80.7391 319.591 80.5898 319.595 80.2913L319.648 76.7037C319.652 76.3816 319.55 76.3443 319.342 76.5918C317.451 78.8304 315.448 80.7685 312.508 81.2692C309.225 81.8269 306.389 80.959 304.002 78.6654C298.482 73.3517 298.364 64.5505 304.037 59.1366C308.832 54.5652 315.572 55.9437 319.306 61.2397C319.515 61.5382 319.619 61.5068 319.619 61.1454ZM313.222 76.7595C314.223 76.6773 315.197 76.3915 316.089 75.9187C316.981 75.4458 317.773 74.795 318.421 74.0036C319.068 73.2121 319.558 72.2954 319.862 71.3058C320.166 70.3162 320.279 69.2732 320.194 68.2361C320.109 67.1991 319.827 66.1884 319.365 65.2618C318.904 64.3352 318.271 63.5109 317.503 62.8358C316.735 62.1607 315.847 61.648 314.89 61.3272C313.932 61.0064 312.925 60.8836 311.924 60.9659C310.923 61.0482 309.949 61.3339 309.057 61.8068C308.165 62.2796 307.372 62.9304 306.725 63.7219C306.078 64.5133 305.588 65.43 305.284 66.4196C304.98 67.4092 304.867 68.4523 304.952 69.4893C305.037 70.5263 305.319 71.537 305.781 72.4636C306.242 73.3902 306.875 74.2146 307.643 74.8897C308.411 75.5648 309.299 76.0774 310.256 76.3982C311.214 76.719 312.221 76.8418 313.222 76.7595Z" fill="#3F39CA"></path><path id="Vector_16" d="M296.025 45.0099L290.205 52.5858C290.188 52.6074 290.167 52.625 290.142 52.6372C290.118 52.6495 290.091 52.656 290.063 52.6565L286.334 52.7331C286.303 52.7339 286.272 52.7268 286.245 52.7125C286.217 52.6981 286.194 52.677 286.177 52.651C286.16 52.6251 286.149 52.5952 286.147 52.5642C286.145 52.5332 286.15 52.5021 286.163 52.4739L289.598 44.845C289.613 44.8134 289.636 44.7867 289.665 44.7679C289.694 44.7491 289.728 44.7391 289.763 44.7389L295.878 44.7154C295.912 44.7148 295.946 44.724 295.976 44.7418C296.005 44.7597 296.029 44.7855 296.044 44.8163C296.06 44.8471 296.066 44.8816 296.063 44.9158C296.059 44.9501 296.046 44.9827 296.025 45.0099Z" fill="#3F39CA"></path><path id="Vector_17" d="M161.851 58.0881L161.863 57.5108C161.87 57.2044 162.028 57.0532 162.334 57.0572L165.297 57.0807C165.544 57.0807 165.668 56.959 165.668 56.7155L165.662 50.5358C165.662 50.3708 165.747 50.2884 165.916 50.2884L170.293 50.2825C170.497 50.2825 170.597 50.3826 170.593 50.5829V56.7744C170.593 56.8556 170.625 56.9336 170.681 56.991C170.737 57.0485 170.814 57.0807 170.894 57.0807L174.899 57.0572C175.127 57.0572 175.241 57.1691 175.241 57.393V61.4754C175.241 61.5247 175.231 61.5734 175.212 61.6188C175.193 61.6643 175.164 61.7054 175.129 61.74C175.093 61.7745 175.051 61.8017 175.004 61.82C174.958 61.8383 174.908 61.8474 174.858 61.8466L170.958 61.7759C170.715 61.772 170.593 61.8917 170.593 62.1352L170.599 80.4564C170.599 80.6527 170.503 80.7509 170.31 80.7509L166.14 80.7568C165.829 80.7568 165.674 80.6037 165.674 80.2973L165.709 62.2295C165.709 61.9585 165.574 61.821 165.303 61.8171L161.586 61.7406C161.374 61.7366 161.191 61.8093 161.038 61.9585L160.449 62.5535C160.372 62.6307 160.27 62.6774 160.162 62.685C160.054 62.6926 159.946 62.6605 159.86 62.5947C158.369 61.5049 156.79 60.5211 154.835 60.9335C153.998 61.1102 153.405 61.6129 153.055 62.4416C152.413 63.9674 154.469 65.4048 155.648 65.8584C158.935 67.1191 162.31 68.7155 163.447 72.3856C164.366 75.3488 162.393 78.8069 159.818 80.2855C155.606 82.7068 150.811 81.0985 148.207 77.3577C148.15 77.277 148.112 77.1846 148.095 77.0871C148.078 76.9897 148.083 76.8895 148.11 76.7939C148.136 76.6982 148.183 76.6094 148.248 76.5338C148.313 76.4581 148.393 76.3975 148.484 76.3562L151.288 75.0955C151.555 74.9738 151.795 75.017 152.007 75.2251C153.874 77.0278 156.437 77.7524 158.593 75.8437C159.614 74.9365 159.773 73.9428 159.07 72.8628C158.44 71.9026 156.944 71.0778 155.836 70.6419C152.39 69.2811 148.437 67.4254 148.543 63.1014C148.678 57.6934 154.263 55.3723 159 56.9806C159.919 57.2928 160.561 57.8701 161.368 58.3532C161.682 58.5417 161.843 58.4533 161.851 58.0881Z" fill="#3F39CA"></path><path id="Vector_18" d="M141.933 61.163L141.91 57.2101C141.91 57.1198 141.957 57.0746 142.051 57.0746H146.57C146.588 57.0746 146.606 57.0783 146.624 57.0854C146.641 57.0925 146.656 57.1029 146.669 57.1161C146.683 57.1292 146.693 57.1448 146.7 57.1619C146.707 57.1791 146.711 57.1975 146.711 57.216V80.4739C146.711 80.6584 146.619 80.7488 146.434 80.7448L142.157 80.7331C142.122 80.7331 142.087 80.726 142.054 80.7123C142.022 80.6987 141.992 80.6786 141.968 80.6534C141.943 80.6281 141.923 80.5982 141.91 80.5653C141.898 80.5325 141.891 80.4974 141.892 80.4621L141.974 77.0747C141.994 76.3207 141.782 76.25 141.338 76.8627C135.771 84.5151 126.151 81.9643 123.141 73.7758C121.413 69.0747 122.071 64.6682 125.114 60.5563C127.2 57.7286 130.593 56.026 134.175 56.4679C137.144 56.837 139.602 58.4433 141.55 61.2867C141.806 61.6598 141.933 61.6186 141.933 61.163ZM134.903 76.9096C135.906 76.9166 136.9 76.7189 137.829 76.3278C138.758 75.9367 139.604 75.3598 140.318 74.6301C141.032 73.9004 141.6 73.0322 141.991 72.075C142.381 71.1178 142.586 70.0904 142.593 69.0514C142.6 68.0125 142.41 66.9823 142.033 66.0198C141.656 65.0572 141.1 64.1812 140.396 63.4415C139.692 62.7019 138.854 62.1133 137.931 61.7093C137.007 61.3052 136.016 61.0936 135.014 61.0866C134.011 61.0796 133.017 61.2773 132.088 61.6684C131.159 62.0596 130.313 62.6364 129.599 63.3661C128.885 64.0958 128.316 64.9641 127.926 65.9213C127.536 66.8784 127.331 67.9059 127.324 68.9448C127.316 69.9838 127.507 71.0139 127.884 71.9765C128.261 72.939 128.817 73.8151 129.521 74.5547C130.225 75.2943 131.062 75.8829 131.986 76.287C132.909 76.691 133.9 76.9026 134.903 76.9096Z" fill="#3F39CA"></path><path id="Vector_19" d="M178.735 69.9291C178.716 69.9289 178.697 69.9327 178.68 69.9403C178.663 69.9479 178.648 69.9591 178.636 69.9731C178.624 69.987 178.615 70.0035 178.609 70.0213C178.604 70.0391 178.602 70.0579 178.605 70.0764C178.896 73.3164 180.671 75.4843 183.93 76.5801C187.165 77.6699 190.352 76.3326 192.673 73.8643C192.948 73.5737 193.244 73.5501 193.562 73.7936L195.966 75.6198C196.41 75.9576 196.453 76.3425 196.095 76.7745C192.873 80.6508 187.418 82.4416 182.629 80.9807C179.027 79.8771 176.47 77.5305 174.958 73.9409C172.531 68.1735 174.552 61.7229 179.783 58.1706C183.648 55.5432 189.321 55.8377 193.062 58.8834C196.254 61.4794 197.829 65.0356 197.786 69.552C197.782 69.7995 197.655 69.9232 197.403 69.9232L178.735 69.9291ZM187.353 61.0572C184.084 60.2148 180.59 62.3414 179.106 65.2398C179.079 65.293 179.067 65.352 179.07 65.4113C179.072 65.4705 179.09 65.528 179.12 65.5782C179.151 65.6284 179.194 65.6697 179.245 65.6981C179.296 65.7265 179.354 65.7411 179.412 65.7405H191.536C192.851 65.7405 193.042 65.2771 192.107 64.3503C191.561 63.8044 191.1 63.3449 190.723 62.9718C189.772 62.0292 188.649 61.391 187.353 61.0572Z" fill="#3F39CA"></path><path id="Vector_20" d="M204.431 60.7272C204.42 61.3085 204.577 61.3595 204.903 60.8804C205.5 59.9967 206.163 59.1366 206.894 58.3001C208.425 56.5623 210.817 56.1204 212.962 56.521C213.276 56.5799 213.396 56.7645 213.321 57.0748L212.314 61.4459C212.239 61.7562 212.046 61.874 211.736 61.7994C207.795 60.8627 204.537 63.3193 204.567 67.3723C204.598 71.8142 204.608 76.1696 204.596 80.4386C204.596 80.6429 204.492 80.745 204.284 80.745L199.954 80.7509C199.711 80.7509 199.589 80.6291 199.589 80.3856L199.583 57.5107C199.583 57.2122 199.732 57.063 200.031 57.063L204.131 57.0807C204.386 57.0807 204.51 57.2083 204.502 57.4636L204.431 60.7272Z" fill="#3F39CA"></path><path id="Vector_21" d="M271.943 76.6624C270.898 78.1391 269.759 79.2486 268.526 79.9909C261.368 84.2913 253.845 78.5122 252.85 70.9717C252.217 66.1842 253.588 62.194 256.962 59.0011C261.675 54.5475 268.396 56.1086 271.895 61.1337C272.131 61.4753 272.243 61.438 272.231 61.0217L272.155 57.4635C272.147 57.2004 272.274 57.0688 272.538 57.0688L276.685 57.057C277.015 57.057 277.18 57.224 277.18 57.5578L277.192 80.2619C277.192 80.5996 277.025 80.7665 276.691 80.7626L272.597 80.739C272.29 80.7351 272.141 80.58 272.149 80.2736L272.249 76.7685C272.261 76.3914 272.159 76.3561 271.943 76.6624ZM265.37 76.9099C266.372 76.9081 267.364 76.7017 268.289 76.3025C269.214 75.9033 270.054 75.3191 270.761 74.5832C271.468 73.8473 272.028 72.9741 272.41 72.0136C272.792 71.053 272.987 70.0239 272.985 68.9849C272.984 67.9459 272.784 66.9174 272.399 65.9582C272.014 64.999 271.451 64.1278 270.741 63.3944C270.031 62.6609 269.189 62.0797 268.263 61.6837C267.337 61.2877 266.345 61.0848 265.343 61.0865C264.341 61.0883 263.349 61.2946 262.424 61.6938C261.499 62.0931 260.659 62.6773 259.952 63.4132C259.245 64.1491 258.685 65.0223 258.303 65.9828C257.921 66.9434 257.726 67.9725 257.728 69.0115C257.729 70.0505 257.928 71.0789 258.314 72.0381C258.699 72.9974 259.262 73.8686 259.972 74.602C260.681 75.3354 261.523 75.9167 262.45 76.3127C263.376 76.7087 264.368 76.9116 265.37 76.9099Z" fill="#3F39CA"></path><path id="Vector_22" d="M330.776 70.2353C330.721 70.8676 330.853 71.4979 331.171 72.1263C332.62 74.9776 334.812 76.5701 337.746 76.9039C340.389 77.2064 342.822 76.1381 345.045 73.6992C345.249 73.4754 345.469 73.4577 345.704 73.6462L348.455 75.8436C348.699 76.036 348.726 76.254 348.538 76.4975C346.492 79.1602 343.739 80.7606 340.279 81.2987C329.251 83.0012 322.594 70.63 328.379 61.8406C330.005 59.3702 332.084 57.7365 334.617 56.9392C343.112 54.2706 350.482 61.2632 349.975 69.6462C349.96 69.8425 349.856 69.9407 349.663 69.9407L331.118 69.9231C330.91 69.9231 330.796 70.0271 330.776 70.2353ZM335.513 61.4282C333.734 62.1312 332.336 63.4547 331.318 65.3987C331.197 65.6265 331.265 65.7404 331.525 65.7404H344.402C344.85 65.7443 344.974 65.546 344.774 65.1454C343.077 61.7522 339.23 59.9613 335.513 61.4282Z" fill="#3F39CA"></path><path id="Vector_23" d="M283.913 71.1307C284.072 78.5063 294.046 78.3944 294.099 71.2721C294.13 66.5632 294.12 61.9191 294.069 57.3398C294.065 57.1631 294.152 57.0747 294.328 57.0747L298.694 57.0629C298.87 57.059 298.957 57.1454 298.953 57.3221C298.933 61.5362 298.945 66.0782 298.988 70.9481C299.047 77.9349 293.492 82.6654 286.717 81.1867C283.968 80.5898 281.944 79.1857 280.644 76.9746C279.536 75.0836 278.971 72.2913 278.988 69.9702C279.024 65.7522 279.029 61.5912 279.006 57.4871C279.006 57.2043 279.147 57.0629 279.43 57.0629H283.424C283.485 57.0637 283.546 57.0765 283.602 57.1006C283.658 57.1247 283.709 57.1596 283.752 57.2034C283.794 57.2472 283.828 57.2989 283.85 57.3557C283.873 57.4124 283.884 57.4731 283.884 57.5342C283.801 61.8425 283.811 66.3747 283.913 71.1307Z" fill="#3F39CA"></path></g></svg>